#!OML:ASF E:\emotionWalksFemale\Project 1\Capture day 1\Session 1\Female1.ASF
:FULLY-SPECIFIED
:DEGREES
1418
root 8.97419 15.2505 -37.3014 1.04418 12.365 -361.681
lowerback 5.7675 2.17704 1.40632
upperback 0.801586 3.02694 1.43352
thorax -2.40954 1.50216 0.452076
lowerneck 1.46298 -8.68258 -9.07282
upperneck -9.18027 -10.9864 14.7568
head -1.55139 -5.68565 6.00858
rclavicle -1.78658e-014 2.78299e-015
rhumerus -37.1235 23.2387 -92.5141
rradius 33.5403
rwrist 19.3898
rhand 4.69169 -51.9982
rfingers 7.12502
rthumb 30.0759 -79.5717
lclavicle -1.78658e-014 2.78299e-015
lhumerus -39.9197 -0.300729 86.2356
lradius 36.132
lwrist -13.426
lhand -4.10598 -37.2601
lfingers 7.12502
lthumb 21.6522 -8.45077
rfemur 3.01886 16.8889 36.4322
rtibia 14.5175
rfoot -23.0653 -39.1759
rtoes 21.1148
lfemur -35.8452 -13.0106 -17.2725
ltibia 47.4218
lfoot -13.0817 3.93627
ltoes -20.389
1419
root 8.97554 15.2487 -37.2591 1.1366 12.3168 -361.684
lowerback 5.96768 2.23071 1.60076
upperback 0.620207 3.1157 1.30356
thorax -2.69063 1.54104 0.190351
lowerneck 1.43721 -8.64143 -9.04128
upperneck -9.11851 -10.9318 14.7671
head -1.53677 -5.65762 6.00465
rclavicle -7.74515e-014 -1.59028e-015
rhumerus -37.1159 22.8547 -92.4565
rradius 33.5096
rwrist 19.4431
rhand 4.22758 -51.9336
rfingers 7.12502
rthumb 29.633 -79.5867
lclavicle -7.74515e-014 -1.59028e-015
lhumerus -40.5734 -0.100589 85.4947
lradius 36.1026
lwrist -13.1527
lhand -3.84543 -37.0619
lfingers 7.12502
lthumb 21.9024 -8.28164
rfemur 3.28842 16.9392 36.4901
rtibia 14.1102
rfoot -23.0467 -39.1088
rtoes 21.0735
lfemur -35.8072 -13.2729 -17.169
ltibia 45.863
lfoot -13.2077 3.63659
ltoes -19.3217
1420
root 8.97473 15.244 -37.2191 1.22177 12.3769 -361.718
lowerback 5.79171 2.23406 1.6756
upperback 0.666658 3.1208 1.35017
thorax -2.54296 1.54448 0.204876
lowerneck 1.3882 -8.60523 -9.2696
upperneck -9.2267 -10.8791 14.7837
head -1.55206 -5.62471 6.04838
rclavicle -5.37464e-014 -1.43125e-014
rhumerus -36.7455 22.769 -92.057
rradius 33.4415
rwrist 19.2303
rhand 3.89121 -51.9989
rfingers 7.12502
rthumb 29.3118 -79.7086
lclavicle -5.37464e-014 -1.43125e-014
lhumerus -40.8869 0.603486 84.7292
lradius 35.9452
lwrist -12.803
lhand -2.19359 -33.4219
lfingers 7.12502
lthumb 23.4877 -4.83573
rfemur 3.66885 17.0198 36.6105
rtibia 13.4867
rfoot -22.926 -39.2389
rtoes 21.3943
lfemur -35.8937 -13.6554 -16.9796
ltibia 44.3255
lfoot -13.3075 3.56754
ltoes -19.0043
1421
root 8.97979 15.2421 -37.1657 1.29761 12.3206 -361.681
lowerback 5.32476 2.28999 1.68465
upperback 0.852002 3.18013 1.38286
thorax -2.09214 1.57856 0.254319
lowerneck 1.19176 -8.62689 -9.38125
upperneck -9.29291 -10.8999 14.6828
head -1.53671 -5.62252 6.02703
rclavicle -1.66979e-014 -1.63003e-014
rhumerus -36.1284 22.6286 -91.4938
rradius 33.2771
rwrist 19.2214
rhand 3.56637 -51.9878
rfingers 7.12502
rthumb 29.0016 -79.7513
lclavicle -1.66979e-014 -1.63003e-014
lhumerus -41.3379 0.761672 84.448
lradius 36.1046
lwrist -13.156
lhand -3.07493 -32.3502
lfingers 7.12502
lthumb 22.6421 -3.65833
rfemur 4.20538 17.2085 36.6803
rtibia 12.7894
rfoot -22.5795 -39.4333
rtoes 21.2113
lfemur -35.8447 -14.2228 -16.8139
ltibia 42.6954
lfoot -13.3607 4.36275
ltoes -20.6897
1422
root 8.98329 15.2493 -37.1142 1.25191 12.234 -361.66
lowerback 5.28474 2.35335 1.71084
upperback 0.892842 3.26361 1.36854
thorax -2.02493 1.62062 0.222283
lowerneck 1.18762 -8.60401 -9.35125
upperneck -9.42161 -10.8631 14.5592
head -1.58804 -5.60241 5.9909
rclavicle 2.88735e-014 1.39149e-014
rhumerus -35.7468 22.1284 -91.0203
rradius 33.1373
rwrist 19.5552
rhand 3.06744 -51.7725
rfingers 7.12502
rthumb 28.525 -79.6169
lclavicle 2.88735e-014 1.39149e-014
lhumerus -42.102 0.856612 83.9867
lradius 36.4237
lwrist -13.2279
lhand -3.51609 -33.1583
lfingers 7.12502
lthumb 22.2186 -4.41531
rfemur 4.87118 17.1903 36.7654
rtibia 12.0279
rfoot -22.1618 -39.4164
rtoes 21.0121
lfemur -35.5425 -14.9183 -16.5645
ltibia 41.0753
lfoot -13.7651 4.93866
ltoes -19.0695
1423
root 8.98785 15.251 -37.0633 1.23547 12.1106 -361.695
lowerback 5.29373 2.43299 1.86794
upperback 0.850114 3.37751 1.28337
thorax -2.05884 1.67551 0.0383666
lowerneck 1.25627 -8.61174 -9.08236
upperneck -9.49556 -10.8729 14.3452
head -1.64981 -5.61178 5.89067
rclavicle -2.53947e-014 3.97569e-016
rhumerus -35.4344 21.3368 -90.6366
rradius 32.9289
rwrist 19.976
rhand 2.58706 -51.4217
rfingers 7.12502
rthumb 28.0659 -79.3423
lclavicle -2.53947e-014 3.97569e-016
lhumerus -42.7675 0.958982 83.3308
lradius 36.4413
lwrist -13.4078
lhand -3.71726 -34.1196
lfingers 7.12502
lthumb 22.0254 -5.35375
rfemur 5.46269 17.0557 36.8485
rtibia 11.2669
rfoot -21.8768 -39.1866
rtoes 21.7146
lfemur -35.3676 -15.6355 -16.1975
ltibia 39.4135
lfoot -13.9792 5.61929
ltoes -17.6681
1424
root 8.99338 15.2496 -37.0124 1.3699 11.9993 -361.701
lowerback 5.50641 2.39886 2.0508
upperback 0.579572 3.35298 1.20556
thorax -2.44136 1.65623 -0.159013
lowerneck 1.14365 -8.577 -9.01287
upperneck -9.12851 -10.8624 14.0763
head -1.54782 -5.59172 5.77978
rclavicle -2.66868e-014 -1.19271e-014
rhumerus -35.313 20.9473 -90.4386
rradius 32.6775
rwrist 20.2602
rhand 2.1944 -51.2535
rfingers 7.12502
rthumb 27.6905 -79.2349
lclavicle -2.66868e-014 -1.19271e-014
lhumerus -43.6095 1.54783 82.5045
lradius 36.2134
lwrist -13.9269
lhand -3.96603 -35.1984
lfingers 7.12502
lthumb 21.7866 -6.40464
rfemur 6.01145 17.1511 36.8962
rtibia 10.3239
rfoot -21.4922 -39.0903
rtoes 22.4207
lfemur -35.3941 -16.365 -15.7888
ltibia 37.8026
lfoot -14.236 6.49664
ltoes -17.4375
1425
root 8.99268 15.2467 -36.9674 1.50493 12.0786 -361.648
lowerback 5.33923 2.36193 1.9295
upperback 0.591272 3.29314 1.26722
thorax -2.34725 1.62899 -0.0159488
lowerneck 1.08804 -8.51945 -9.09354
upperneck -9.20171 -10.7852 13.9495
head -1.57281 -5.54581 5.75637
rclavicle 4.74101e-014 2.26615e-014
rhumerus -34.7123 20.6755 -89.8953
rradius 32.4281
rwrist 20.2437
rhand 1.79551 -51.5889
rfingers 7.12502
rthumb 27.309 -79.631
lclavicle 4.74101e-014 2.26615e-014
lhumerus -43.9079 2.40216 81.8357
lradius 35.7497
lwrist -14.58
lhand -4.2675 -36.1837
lfingers 7.12502
lthumb 21.4971 -7.3566
rfemur 6.49888 16.7992 36.8982
rtibia 9.45807
rfoot -21.1853 -38.7144
rtoes 22.6138
lfemur -35.4259 -17.1672 -15.4737
ltibia 36.1805
lfoot -14.4158 7.52407
ltoes -20.4086
1426
root 8.99732 15.2461 -36.9055 1.37767 11.8323 -361.616
lowerback 5.3019 2.43614 1.9425
upperback 0.674958 3.3886 1.22773
thorax -2.23584 1.67772 -0.0661876
lowerneck 0.941129 -8.46549 -9.15503
upperneck -9.18825 -10.7013 14.0142
head -1.54643 -5.49904 5.7797
rclavicle 8.65956e-014 -3.97569e-016
rhumerus -34.1247 20.0723 -89.4443
rradius 32.0622
rwrist 20.5232
rhand 1.48257 -52.0612
rfingers 7.12502
rthumb 27.0096 -80.1501
lclavicle 8.65956e-014 -3.97569e-016
lhumerus -44.1996 3.15204 80.9805
lradius 35.2111
lwrist -15.1034
lhand -4.33889 -37.0206
lfingers 7.12502
lthumb 21.4285 -8.18568
rfemur 7.34314 16.6865 36.9927
rtibia 8.62948
rfoot -20.7725 -38.5041
rtoes 22.1808
lfemur -35.0506 -17.9044 -15.1716
ltibia 34.6133
lfoot -14.6368 8.8725
ltoes -23.4989
1427
root 9.00214 15.2466 -36.8543 1.52971 11.779 -361.603
lowerback 5.3073 2.45711 2.09488
upperback 0.570396 3.42441 1.10057
thorax -2.32928 1.69209 -0.286883
lowerneck 0.673874 -8.46851 -9.10496
upperneck -8.95399 -10.7002 14.0852
head -1.43223 -5.49041 5.77106
rclavicle 3.53091e-014 8.34896e-015
rhumerus -33.6113 19.2421 -89.0393
rradius 31.5389
rwrist 21.4786
rhand 0.955878 -51.7191
rfingers 7.12502
rthumb 26.5056 -79.885
lclavicle 3.53091e-014 8.34896e-015
lhumerus -44.6946 3.66013 80.0219
lradius 34.9836
lwrist -15.0084
lhand -3.45948 -37.7935
lfingers 7.12502
lthumb 22.2729 -9.05705
rfemur 7.80368 16.4762 36.9296
rtibia 7.73915
rfoot -20.3514 -38.2619
rtoes 22.1364
lfemur -35.1851 -19.0807 -14.5329
ltibia 33.1421
lfoot -15.1104 9.77514
ltoes -19.6681
1428
root 9.00926 15.2512 -36.8016 1.66554 11.4561 -361.538
lowerback 5.08369 2.60055 2.04701
upperback 0.536755 3.60578 1.06255
thorax -2.236 1.78365 -0.301285
lowerneck 0.865214 -8.45329 -9.07324
upperneck -9.04259 -10.6819 14.1209
head -1.49112 -5.4907 5.79026
rclavicle 1.98785e-015 -1.47101e-014
rhumerus -33.0962 18.3439 -88.4055
rradius 31.0828
rwrist 22.3819
rhand 0.405252 -51.0518
rfingers 7.12502
rthumb 25.9785 -79.2962
lclavicle 1.98785e-015 -1.47101e-014
lhumerus -45.1739 4.24836 79.2772
lradius 34.8279
lwrist -14.8501
lhand -2.17755 -37.889
lfingers 7.12502
lthumb 23.5031 -9.3048
rfemur 8.45262 16.5208 36.807
rtibia 6.59942
rfoot -19.5794 -38.0752
rtoes 22.0482
lfemur -35.2686 -20.3047 -13.8348
ltibia 31.8071
lfoot -15.817 11.0869
ltoes -15.7576
1429
root 9.01447 15.2506 -36.7463 1.72822 11.195 -361.531
lowerback 4.94354 2.72859 1.95021
upperback 0.526562 3.76864 1.12064
thorax -2.1753 1.8666 -0.191678
lowerneck 0.949556 -8.45862 -9.02498
upperneck -9.10677 -10.6953 13.9829
head -1.53416 -5.49807 5.74755
rclavicle -1.9133e-014 1.98785e-015
rhumerus -32.4177 17.3838 -87.6066
rradius 30.7875
rwrist 22.2782
rhand 0.53547 -51.7029
rfingers 7.12502
rthumb 26.1032 -79.9289
lclavicle -1.9133e-014 1.98785e-015
lhumerus -45.4924 4.93549 78.7003
lradius 34.3855
lwrist -15.3355
lhand -1.76697 -37.6992
lfingers 7.12502
lthumb 23.8969 -9.16598
rfemur 9.1641 16.482 36.8159
rtibia 5.50867
rfoot -18.8283 -37.9309
rtoes 21.612
lfemur -35.3175 -21.4913 -13.1476
ltibia 30.5772
lfoot -16.2351 13.0529
ltoes -17.564
1430
root 9.01924 15.2447 -36.6899 1.81284 11.1202 -361.584
lowerback 4.72658 2.74635 1.86441
upperback 0.509704 3.7854 1.25429
thorax -2.08573 1.87722 0.00268811
lowerneck 1.00818 -8.38202 -9.10494
upperneck -9.11635 -10.6047 13.8625
head -1.56059 -5.44874 5.72973
rclavicle 5.56597e-015 -6.75868e-015
rhumerus -31.9715 17.1506 -87.1346
rradius 30.1801
rwrist 23.5865
rhand -0.929652 -50.5491
rfingers 7.12502
rthumb 24.6996 -78.9748
lclavicle 5.56597e-015 -6.75868e-015
lhumerus -45.9409 5.69671 78.12
lradius 33.9031
lwrist -16.0727
lhand -2.85355 -37.7592
lfingers 7.12502
lthumb 22.8545 -9.09338
rfemur 9.90929 16.2707 36.9009
rtibia 4.24175
rfoot -18.0438 -37.7715
rtoes 20.5337
lfemur -35.4849 -22.7531 -12.3663
ltibia 29.4507
lfoot -16.6247 14.4262
ltoes -15.9278
1431
root 9.0235 15.2412 -36.6312 1.95846 11.0926 -361.553
lowerback 4.32997 2.70512 1.61059
upperback 0.507067 3.71043 1.38378
thorax -1.89227 1.84429 0.301367
lowerneck 1.14423 -8.26558 -9.14985
upperneck -9.13005 -10.4606 13.8001
head -1.60521 -5.37831 5.72915
rclavicle -9.39258e-015 2.38542e-015
rhumerus -31.3826 16.5247 -86.4776
rradius 29.7409
rwrist 24.5779
rhand -1.25139 -50.9293
rfingers 7.12502
rthumb 24.3912 -79.3969
lclavicle -9.39258e-015 2.38542e-015
lhumerus -46.5009 6.56844 77.4472
lradius 33.4925
lwrist -16.7843
lhand -4.73336 -37.1161
lfingers 7.12502
lthumb 21.0496 -8.23856
rfemur 10.9668 16.0251 36.8685
rtibia 2.28157
rfoot -16.8342 -37.5005
rtoes 19.7881
lfemur -35.7516 -24.0653 -11.6131
ltibia 28.4424
lfoot -17.314 15.4214
ltoes -12.2293
